<svg width="356" height="114" viewBox="0 0 356 114" fill="none" xmlns="http://www.w3.org/2000/svg">
<path d="M151.784 68.728C152.339 68.728 152.765 68.984 153.064 69.496C153.405 70.008 153.576 70.712 153.576 71.608C153.576 73.272 153.171 74.5947 152.36 75.576C150.312 78.0507 148.243 79.9707 146.152 81.336C144.061 82.6587 141.587 83.32 138.728 83.32C135.955 83.32 133.587 82.5733 131.624 81.08C129.704 79.5867 127.869 77.0267 126.12 73.4C124.712 70.4987 123.603 68.3653 122.792 67C121.981 65.592 121.171 64.5893 120.36 63.992C119.592 63.3947 118.632 63.032 117.48 62.904C117.309 63.8 116.819 66.616 116.008 71.352C115.667 73.4853 115.453 74.7867 115.368 75.256C114.941 77.8587 114.088 79.864 112.808 81.272C111.528 82.6373 109.587 83.32 106.984 83.32C104.125 83.32 101.587 82.488 99.368 80.824C97.192 79.1173 95.5067 76.7707 94.312 73.784C93.1173 70.7547 92.52 67.32 92.52 63.48C92.52 56.312 93.7573 50.1253 96.232 44.92C98.7493 39.7147 102.248 35.7467 106.728 33.016C111.251 30.2427 116.456 28.856 122.344 28.856C126.44 28.856 129.875 29.4747 132.648 30.712C135.421 31.9493 137.469 33.656 138.792 35.832C140.157 38.008 140.84 40.4613 140.84 43.192C140.84 45.5813 140.264 47.928 139.112 50.232C138.003 52.4933 136.317 54.4987 134.056 56.248C131.795 57.9973 129.043 59.2987 125.8 60.152C127.848 60.7067 129.427 61.6027 130.536 62.84C131.645 64.0773 132.755 65.8907 133.864 68.28C135.059 70.84 136.232 72.7173 137.384 73.912C138.579 75.1067 139.944 75.704 141.48 75.704C142.845 75.704 144.147 75.256 145.384 74.36C146.621 73.4213 148.179 71.8427 150.056 69.624C150.568 69.0267 151.144 68.728 151.784 68.728ZM108.648 62.84C107.197 62.84 106.195 62.4987 105.64 61.816C105.128 61.1333 104.872 60.3653 104.872 59.512C104.872 58.488 105.192 57.6773 105.832 57.08C106.515 56.4827 107.283 56.184 108.136 56.184H109.736C110.419 52.0027 111.059 48.3973 111.656 45.368C112.211 42.5947 114.003 41.208 117.032 41.208C119.464 41.208 120.68 42.296 120.68 44.472C120.68 44.9413 120.659 45.304 120.616 45.56L118.696 56.184C121 56.056 123.091 55.5013 124.968 54.52C126.888 53.5387 128.403 52.1733 129.512 50.424C130.664 48.6747 131.24 46.6907 131.24 44.472C131.24 41.784 130.323 39.672 128.488 38.136C126.653 36.6 123.965 35.832 120.424 35.832C116.243 35.832 112.573 36.8773 109.416 38.968C106.301 41.016 103.869 44.088 102.12 48.184C100.371 52.2373 99.496 57.1867 99.496 63.032C99.496 65.7627 99.7733 68.1093 100.328 70.072C100.883 72.0347 101.565 73.5067 102.376 74.488C103.187 75.4693 103.955 75.96 104.68 75.96C105.235 75.96 105.683 75.6827 106.024 75.128C106.408 74.5733 106.707 73.6773 106.92 72.44L108.648 62.84ZM155.007 83.32C152.361 83.32 150.249 82.36 148.671 80.44C147.092 78.52 146.303 76.0027 146.303 72.888C146.303 69.4747 147.092 66.2533 148.671 63.224C150.249 60.152 152.34 57.6987 154.943 55.864C157.588 53.9867 160.383 53.048 163.327 53.048C164.265 53.048 164.884 53.24 165.183 53.624C165.524 53.9653 165.801 54.6053 166.015 55.544C166.911 55.3733 167.849 55.288 168.831 55.288C170.921 55.288 171.967 56.0347 171.967 57.528C171.967 58.424 171.647 60.5573 171.007 63.928C170.025 68.8347 169.535 72.248 169.535 74.168C169.535 74.808 169.684 75.32 169.983 75.704C170.324 76.088 170.751 76.28 171.263 76.28C172.073 76.28 173.055 75.768 174.207 74.744C175.359 73.6773 176.916 71.9707 178.879 69.624C179.391 69.0267 179.967 68.728 180.607 68.728C181.161 68.728 181.588 68.984 181.887 69.496C182.228 70.008 182.399 70.712 182.399 71.608C182.399 73.3147 181.993 74.6373 181.183 75.576C179.433 77.752 177.577 79.5867 175.615 81.08C173.652 82.5733 171.753 83.32 169.919 83.32C168.511 83.32 167.209 82.8507 166.015 81.912C164.863 80.9307 163.988 79.608 163.391 77.944C161.172 81.528 158.377 83.32 155.007 83.32ZM157.311 76.856C158.249 76.856 159.145 76.3013 159.999 75.192C160.852 74.0827 161.471 72.6107 161.855 70.776L164.223 59C162.431 59.0427 160.767 59.7253 159.231 61.048C157.737 62.328 156.543 64.0347 155.647 66.168C154.751 68.3013 154.303 70.5627 154.303 72.952C154.303 74.2747 154.559 75.256 155.071 75.896C155.625 76.536 156.372 76.856 157.311 76.856ZM184.045 48.952C182.253 48.952 180.909 48.5467 180.013 47.736C179.117 46.8827 178.669 45.7093 178.669 44.216C178.669 42.7227 179.245 41.4853 180.397 40.504C181.592 39.48 183.064 38.968 184.813 38.968C186.392 38.968 187.672 39.352 188.653 40.12C189.634 40.888 190.125 41.976 190.125 43.384C190.125 45.0907 189.57 46.456 188.461 47.48C187.352 48.4613 185.88 48.952 184.045 48.952ZM195.565 68.856C196.12 68.856 196.546 69.1333 196.845 69.688C197.186 70.2 197.357 70.8613 197.357 71.672C197.357 72.6533 197.208 73.4213 196.909 73.976C196.61 74.5307 196.141 75.0213 195.501 75.448C192.514 77.4107 188.525 80.12 183.533 83.576C181.869 92.4507 179.714 99.4267 177.069 104.504C174.424 109.581 171.053 112.12 166.957 112.12C164.738 112.12 162.968 111.437 161.645 110.072C160.28 108.749 159.597 107 159.597 104.824C159.597 101.795 160.77 98.552 163.117 95.096C165.464 91.6827 169.88 87.4587 176.365 82.424L176.813 79.16C177.41 75.064 177.88 71.032 178.221 67.064C178.477 64.76 178.882 61.3253 179.437 56.76C179.608 55.5227 180.077 54.6267 180.845 54.072C181.613 53.4747 182.786 53.176 184.365 53.176C185.645 53.176 186.477 53.368 186.861 53.752C187.288 54.136 187.501 54.6693 187.501 55.352C187.501 57.3147 186.797 62.7333 185.389 71.608L184.749 76.024C188.162 73.464 191.277 71.2453 194.093 69.368C194.648 69.0267 195.138 68.856 195.565 68.856ZM167.661 105.912C168.77 105.912 169.986 104.653 171.309 102.136C172.632 99.6187 173.869 95.5653 175.021 89.976C171.778 92.7493 169.453 95.2453 168.045 97.464C166.594 99.7253 165.869 101.709 165.869 103.416C165.869 105.08 166.466 105.912 167.661 105.912ZM201.144 48.952C199.352 48.952 198.008 48.5467 197.112 47.736C196.216 46.8827 195.768 45.7093 195.768 44.216C195.768 42.7227 196.344 41.4853 197.496 40.504C198.69 39.48 200.162 38.968 201.912 38.968C203.49 38.968 204.77 39.352 205.752 40.12C206.733 40.888 207.224 41.976 207.224 43.384C207.224 45.0907 206.669 46.456 205.56 47.48C204.45 48.4613 202.978 48.952 201.144 48.952ZM200.632 83.32C197.858 83.32 195.832 82.3387 194.552 80.376C193.314 78.4133 192.696 75.8107 192.696 72.568C192.696 70.648 192.93 68.1947 193.4 65.208C193.912 62.1787 194.552 59.3627 195.32 56.76C195.704 55.3947 196.216 54.456 196.856 53.944C197.496 53.432 198.52 53.176 199.928 53.176C202.104 53.176 203.192 53.9013 203.192 55.352C203.192 56.4187 202.786 58.8933 201.976 62.776C200.952 67.4693 200.44 70.648 200.44 72.312C200.44 73.592 200.61 74.5733 200.952 75.256C201.293 75.9387 201.869 76.28 202.68 76.28C203.448 76.28 204.408 75.7467 205.56 74.68C206.712 73.6133 208.248 71.928 210.168 69.624C210.68 69.0267 211.256 68.728 211.896 68.728C212.45 68.728 212.877 68.984 213.176 69.496C213.517 70.008 213.688 70.712 213.688 71.608C213.688 73.3147 213.282 74.6373 212.472 75.576C208.248 80.7387 204.301 83.32 200.632 83.32ZM215.87 83.32C213.438 83.32 211.454 82.36 209.918 80.44C208.424 78.52 207.678 76.0027 207.678 72.888C207.678 69.4747 208.467 66.2533 210.046 63.224C211.624 60.152 213.715 57.6987 216.318 55.864C218.963 53.9867 221.758 53.048 224.702 53.048C225.64 53.048 226.259 53.24 226.558 53.624C226.899 53.9653 227.176 54.6053 227.39 55.544C228.2 55.3733 229.096 55.288 230.078 55.288C231.102 55.288 231.891 55.544 232.446 56.056C233 56.568 233.278 57.2933 233.278 58.232C233.278 59.2133 233.064 60.92 232.638 63.352C232.168 65.9547 231.806 68.4507 231.55 70.84C231.294 73.1867 231.166 75.832 231.166 78.776C231.166 80.3973 230.824 81.5707 230.142 82.296C229.502 82.9787 228.435 83.32 226.942 83.32C225.491 83.32 224.403 82.9787 223.678 82.296C222.995 81.5707 222.654 80.4187 222.654 78.84L222.718 77.816C221.395 81.4853 219.112 83.32 215.87 83.32ZM218.366 76.856C219.56 76.856 220.648 76.024 221.63 74.36C222.611 72.696 223.486 69.7307 224.253 65.464L225.47 59C223.72 59.0427 222.099 59.7253 220.606 61.048C219.112 62.328 217.918 64.0347 217.022 66.168C216.126 68.3013 215.678 70.5627 215.678 72.952C215.678 74.232 215.912 75.2133 216.382 75.896C216.894 76.536 217.555 76.856 218.366 76.856ZM273.47 45.304H258.942V83H250.174V45.304H235.646V37.56H273.47V45.304ZM306.26 83H297.684V64.184C297.684 61.496 297.214 59.5333 296.276 58.296C295.337 57.0587 294.036 56.44 292.372 56.44C291.22 56.44 290.046 56.7387 288.852 57.336C287.7 57.9333 286.654 58.7653 285.716 59.832C284.777 60.856 284.094 62.0507 283.668 63.416V83H275.092V49.464H282.836V55.672C284.073 53.5813 285.865 51.9387 288.212 50.744C290.558 49.5067 293.204 48.888 296.148 48.888C298.238 48.888 299.945 49.272 301.268 50.04C302.59 50.7653 303.614 51.768 304.34 53.048C305.065 54.2853 305.556 55.6933 305.812 57.272C306.11 58.8507 306.26 60.4507 306.26 62.072V83ZM333.116 83.32C330.129 83.32 327.335 82.7227 324.732 81.528C322.129 80.3333 319.825 78.6907 317.82 76.6C315.857 74.4667 314.321 71.992 313.212 69.176C312.103 66.36 311.548 63.3093 311.548 60.024C311.548 56.9093 312.103 53.9867 313.212 51.256C314.321 48.4827 315.879 46.0507 317.884 43.96C319.889 41.8693 322.236 40.2267 324.924 39.032C327.612 37.8373 330.535 37.24 333.692 37.24C337.916 37.24 341.564 38.1573 344.636 39.992C347.708 41.784 350.012 44.1733 351.548 47.16L344.956 52.024C343.804 49.8053 342.183 48.0987 340.092 46.904C338.044 45.6667 335.804 45.048 333.372 45.048C330.812 45.048 328.551 45.752 326.588 47.16C324.668 48.568 323.153 50.424 322.044 52.728C320.977 55.032 320.444 57.5493 320.444 60.28C320.444 63.1387 321.02 65.72 322.172 68.024C323.324 70.328 324.903 72.1627 326.908 73.528C328.956 74.8507 331.281 75.512 333.884 75.512C338.279 75.512 342.247 73.4427 345.788 69.304V66.104H336.636V59.64H353.084V83H345.788V77.88C342.119 81.5067 337.895 83.32 333.116 83.32Z" fill="black"/>
<path d="M42.4359 18.7691L37.108 12.422L40.3836 35.9782L38.4238 102.825L66.4534 103.647L68.4132 36.7999L73.3531 13.4847L68.919 19.5455L64.8476 13.2353L59.6403 19.2735L55.4722 12.9604L51.2314 19.027L46.87 12.7082L42.4359 18.7691Z" fill="#D8CBC7" stroke="#C3C1C0" stroke-width="4"/>
<path d="M40.7679 35.7722L68.1145 36.5739" stroke="#C3C1C0" stroke-width="3"/>
<path d="M35.1392 98.5005L36.9927 32.2321L40.1894 35.6151L38.2276 102.53L35.1392 98.5005Z" fill="#D8CBC7"/>
<path d="M36.8574 11.3266L36.9927 32.2321M36.9927 32.2321L35.1392 98.5005L38.2276 102.53L40.1894 35.6151L36.9927 32.2321Z" stroke="#C4C1C0" stroke-width="3"/>
<path fill-rule="evenodd" clip-rule="evenodd" d="M80.2852 94.6502C74.1779 102.765 52.1183 96.7998 31.0135 81.3268C9.90876 65.8539 -2.24913 46.7323 3.85811 38.6176C9.96535 30.503 32.025 36.4681 53.1298 51.941C74.2345 67.414 86.3924 86.5356 80.2852 94.6502ZM29.2343 57.2222C26.6433 60.6648 23.6742 62.8186 22.6024 62.0328C21.5307 61.2471 22.7623 57.8194 25.3532 54.3768C27.9442 50.9342 30.9134 48.7804 31.9851 49.5662C33.0568 50.3519 31.8252 53.7796 29.2343 57.2222ZM32.4543 69.2558C33.5261 70.0415 36.4953 67.8877 39.0862 64.4451C41.6772 61.0026 42.9087 57.5748 41.837 56.7891C40.7653 56.0034 37.7961 58.1572 35.2051 61.5997C32.6142 65.0423 31.3826 68.47 32.4543 69.2558ZM48.9381 71.6681C46.3471 75.1107 43.3779 77.2645 42.3062 76.4787C41.2345 75.693 42.4661 72.2653 45.057 68.8227C47.648 65.3801 50.6172 63.2263 51.6889 64.012C52.7606 64.7978 51.529 68.2255 48.9381 71.6681ZM52.1582 83.7017C53.23 84.4874 56.1991 82.3336 58.7901 78.891C61.381 75.4485 62.6126 72.0207 61.5409 71.235C60.4692 70.4493 57.5 72.6031 54.909 76.0456C52.3181 79.4882 51.0865 82.9159 52.1582 83.7017Z" fill="#9A6D38"/>
</svg>
